<?xml version="1.0" encoding="UTF-8" standalone="no"?>
<!-- Created with Inkscape (http://www.inkscape.org/) -->

<svg
   xmlns:dc="http://purl.org/dc/elements/1.1/"
   xmlns:cc="http://creativecommons.org/ns#"
   xmlns:rdf="http://www.w3.org/1999/02/22-rdf-syntax-ns#"
   xmlns:svg="http://www.w3.org/2000/svg"
   xmlns="http://www.w3.org/2000/svg"
   xmlns:sodipodi="http://sodipodi.sourceforge.net/DTD/sodipodi-0.dtd"
   xmlns:inkscape="http://www.inkscape.org/namespaces/inkscape"
   version="1.1"
   id="svg2"
   xml:space="preserve"
   width="210mm"
   height="297mm"
   viewBox="0 0 793.7008 1122.5197"
   sodipodi:docname="madpy-flyer.svg"
   inkscape:version="0.92.2 5c3e80d, 2017-08-06"><metadata
     id="metadata8"><rdf:RDF><cc:Work
         rdf:about=""><dc:format>image/svg+xml</dc:format><dc:type
           rdf:resource="http://purl.org/dc/dcmitype/StillImage" /><dc:title></dc:title></cc:Work></rdf:RDF></metadata><defs
     id="defs6"><clipPath
       clipPathUnits="userSpaceOnUse"
       id="clipPath20"><path
         d="M 0,400 H 600 V 0 H 0 Z"
         id="path18"
         inkscape:connector-curvature="0" /></clipPath></defs><sodipodi:namedview
     pagecolor="#ffffff"
     bordercolor="#666666"
     borderopacity="1"
     objecttolerance="10"
     gridtolerance="10"
     guidetolerance="10"
     inkscape:pageopacity="0"
     inkscape:pageshadow="2"
     inkscape:window-width="1703"
     inkscape:window-height="887"
     id="namedview4"
     showgrid="false"
     inkscape:zoom="0.63250561"
     inkscape:cx="396.85039"
     inkscape:cy="561.25984"
     inkscape:window-x="413"
     inkscape:window-y="129"
     inkscape:window-maximized="0"
     inkscape:current-layer="g10"
     units="mm" /><g
     id="g10"
     inkscape:groupmode="layer"
     inkscape:label="madpy-cover"
     transform="matrix(1.3333333,0,0,-1.3333333,0,1122.5197)"><path
       d="M 0,-2.6234923e-5 H 600 V 841.12148 H 0 Z"
       style="fill:#8aaad9;fill-opacity:1;fill-rule:nonzero;stroke:none;stroke-width:1.45010471"
       id="path12"
       inkscape:connector-curvature="0" /><g
       id="g14"
       transform="translate(-2.3624743,400.69416)"><g
         id="g16"
         clip-path="url(#clipPath20)"><g
           id="g22"
           transform="translate(212.9883,225.7959)"><path
             d="m 0,0 c 0.049,-3.196 2.71,-5.824 5.891,-5.822 3.328,0.005 6.002,2.734 5.932,6.058 C 11.758,3.417 9.09,6.062 5.93,6.089 2.658,6.117 -0.049,3.335 0,0 m 200.772,86.912 c -5.163,0 -9.861,-0.149 -14.55,0.063 C 183.8,87.08 182.9,86.16 182.212,83.962 174.143,58.339 165.971,32.746 157.837,7.141 156.956,4.36 156.143,1.56 155.276,-1.285 c 5.919,-0.729 5.914,-0.729 8.025,3.998 9.992,22.428 19.997,44.853 29.984,67.285 2.436,5.47 4.851,10.953 7.487,16.914 M -11.984,-33.118 C -0.111,-70.636 41.574,-101.681 89.87,-91.4 c 48.677,10.36 70.82,54.62 69.821,83.766 -8.233,0 -16.482,-0.133 -24.722,0.071 -2.842,0.074 -4.115,-0.729 -5.123,-3.499 -5.908,-16.243 -15.138,-30.314 -28.187,-41.751 -10.633,-9.307 -22.695,-16.043 -36.868,-17.566 -27.058,-2.9 -49.784,6.182 -68.083,26.259 -2.98,3.266 -5.511,6.949 -8.692,11.002 M 78.043,-99.283 H 62.489 v -2.777 c 0,-12.625 0,-25.245 -0.002,-37.874 0,-0.74 0.276,-1.728 -0.092,-2.178 -0.838,-1.03 -2.005,-2.497 -3.025,-2.484 -0.995,0.016 -2.433,1.473 -2.833,2.6 -0.498,1.403 -0.136,3.112 -0.136,4.688 -0.004,12.257 -0.035,24.512 0.036,36.766 0.012,1.819 -0.487,2.485 -2.373,2.845 -41.154,7.833 -72.073,41.32 -76.673,82.937 -0.252,2.283 -0.349,4.582 -0.536,7.126 -2.554,0 -4.856,0.035 -7.16,-0.01 -2.133,-0.042 -4.006,0.277 -4.138,2.939 -0.103,2.08 1.368,3.122 4.296,3.145 2.396,0.019 4.79,0.002 7.146,0.002 3.182,26.428 23.871,38.667 40.292,39.576 18.142,1.002 38.241,-9.959 44.446,-33.58 2.729,0.713 5.471,1.411 8.201,2.151 20.307,5.508 40.606,11.034 60.912,16.539 3.601,0.976 5.354,-0.444 4.982,-4.186 -0.67,-6.713 -1.492,-13.415 -2.285,-20.476 4.527,0 9.318,-0.089 14.094,0.108 0.636,0.026 1.461,1.434 1.752,2.344 6.34,19.767 12.622,39.554 18.904,59.337 3.057,9.628 6.166,19.242 9.105,28.91 0.831,2.745 2.247,3.904 5.173,3.838 6.964,-0.154 13.929,-0.04 20.89,-0.052 5.046,-0.006 6.053,-1.536 4.026,-6.099 -12.597,-28.283 -25.2,-56.561 -37.79,-84.84 -0.445,-1.008 -0.849,-2.031 -1.5,-3.572 2.195,0 4.071,0.001 5.95,0 2.07,-0.004 3.51,-0.925 3.501,-3.081 -0.015,-2.146 -1.413,-3.045 -3.523,-3.003 -2.492,0.05 -4.981,0.012 -7.207,0.012 -5.682,-50.324 -33.01,-80.59 -82.704,-91.529 v -2.408 c 0,-12.72 0.002,-25.44 -0.005,-38.156 0,-0.926 0.239,-2.103 -0.225,-2.712 -0.749,-0.979 -2.017,-2.2 -3.019,-2.159 -0.983,0.043 -2.083,1.405 -2.793,2.422 -0.399,0.572 -0.132,1.617 -0.133,2.451 -0.001,12.353 0,24.701 0,37.043 z"
             style="fill:#000000;fill-opacity:1;fill-rule:evenodd;stroke:none"
             id="path24"
             inkscape:connector-curvature="0" /></g></g></g><text
       xml:space="preserve"
       style="font-style:normal;font-variant:normal;font-weight:normal;font-stretch:normal;font-size:80px;line-height:1.25;font-family:sans-serif;-inkscape-font-specification:'sans-serif, Normal';font-variant-ligatures:normal;font-variant-caps:normal;font-variant-numeric:normal;font-feature-settings:normal;text-align:start;letter-spacing:0px;word-spacing:0px;writing-mode:lr-tb;text-anchor:start;fill:#000000;fill-opacity:1;stroke:none;stroke-width:0.75"
       x="157.22765"
       y="-382.24469"
       id="text3736"
       transform="scale(1,-1)"><tspan
         sodipodi:role="line"
         id="tspan3734"
         x="157.22765"
         y="-382.24469"
         style="font-style:normal;font-variant:normal;font-weight:normal;font-stretch:normal;font-size:80px;font-family:sans-serif;-inkscape-font-specification:'sans-serif, Normal';font-variant-ligatures:normal;font-variant-caps:normal;font-variant-numeric:normal;font-feature-settings:normal;text-align:start;writing-mode:lr-tb;text-anchor:start;stroke-width:0.75">madpy</tspan></text>
</g></svg>